<svg width="410" height="182" viewBox="0 0 410 182" fill="none" xmlns="http://www.w3.org/2000/svg">
<path d="M76.25 42C72.25 46.8333 68.0833 52 63.75 57.5C59.5833 63 55.5 68.75 51.5 74.75C47.5 80.75 43.6667 86.9167 40 93.25C36.3333 99.4167 33 105.583 30 111.75H76.25V42ZM105.75 4.75001V111.75H125.25V136.5H105.75V178H76.25V136.5H0.25V115C3.58333 107.667 8 99.25 13.5 89.75C19.1667 80.25 25.4167 70.5 32.25 60.5C39.0833 50.5 46.3333 40.6667 54 31C61.6667 21.3333 69.3333 12.5833 77 4.75001H105.75Z" fill="white"/>
<path d="M265.34 91.25C265.34 120.417 260.007 142.833 249.34 158.5C238.673 174 223.923 181.75 205.09 181.75C186.257 181.75 171.507 174 160.84 158.5C150.173 142.833 144.84 120.417 144.84 91.25C144.84 76.75 146.173 63.9167 148.84 52.75C151.673 41.4167 155.673 31.9167 160.84 24.25C166.173 16.5833 172.507 10.75 179.84 6.75C187.34 2.75 195.757 0.75 205.09 0.75C223.923 0.75 238.673 8.58334 249.34 24.25C260.007 39.75 265.34 62.0833 265.34 91.25ZM234.09 91.25C234.09 82.25 233.59 73.8333 232.59 66C231.59 58.1667 229.923 51.4167 227.59 45.75C225.423 39.9167 222.507 35.3333 218.84 32C215.173 28.6667 210.59 27 205.09 27C199.59 27 194.923 28.6667 191.09 32C187.423 35.3333 184.423 39.9167 182.09 45.75C179.923 51.4167 178.34 58.1667 177.34 66C176.507 73.8333 176.09 82.25 176.09 91.25C176.09 100.25 176.507 108.667 177.34 116.5C178.34 124.333 179.923 131.167 182.09 137C184.423 142.667 187.423 147.167 191.09 150.5C194.923 153.833 199.59 155.5 205.09 155.5C210.59 155.5 215.173 153.833 218.84 150.5C222.507 147.167 225.423 142.667 227.59 137C229.923 131.167 231.59 124.333 232.59 116.5C233.59 108.667 234.09 100.25 234.09 91.25Z" fill="white"/>
<path d="M360.43 42C356.43 46.8333 352.263 52 347.93 57.5C343.763 63 339.68 68.75 335.68 74.75C331.68 80.75 327.846 86.9167 324.18 93.25C320.513 99.4167 317.18 105.583 314.18 111.75H360.43V42ZM389.93 4.75001V111.75H409.43V136.5H389.93V178H360.43V136.5H284.43V115C287.763 107.667 292.18 99.25 297.68 89.75C303.346 80.25 309.596 70.5 316.43 60.5C323.263 50.5 330.513 40.6667 338.18 31C345.846 21.3333 353.513 12.5833 361.18 4.75001H389.93Z" fill="white"/>
</svg>
