<svg width="512" height="512" viewBox="0 0 512 512" fill="none" xmlns="http://www.w3.org/2000/svg">
<path d="M508 425.98H4C1.791 425.98 0 424.189 0 421.98V90.02C0 87.811 1.791 86.02 4 86.02H508C510.209 86.02 512 87.811 512 90.02V421.98C512 424.189 510.209 425.98 508 425.98Z" fill="#4BA543"/>
<path d="M481.095 86.02V425.98H508C510.209 425.98 512 424.189 512 421.98V90.02C512 87.811 510.209 86.02 508 86.02H481.095Z" fill="#43A047"/>
<path d="M70.122 252.719L253.712 124.702C255.087 123.743 256.913 123.743 258.288 124.702L441.878 252.719C444.161 254.311 444.161 257.689 441.878 259.281L258.288 387.298C256.913 388.257 255.087 388.257 253.712 387.298L70.122 259.281C67.839 257.689 67.839 254.311 70.122 252.719Z" fill="#FECE3F"/>
<path d="M256 330.173C296.965 330.173 330.173 296.965 330.173 256C330.173 215.035 296.965 181.827 256 181.827C215.035 181.827 181.827 215.035 181.827 256C181.827 296.965 215.035 330.173 256 330.173Z" fill="#2387EB"/>
<path d="M256 181.827C250.7 181.827 245.533 182.393 240.547 183.45C274.093 190.561 299.267 220.336 299.267 256C299.267 291.664 274.092 321.439 240.547 328.55C245.533 329.607 250.699 330.173 256 330.173C296.965 330.173 330.173 296.965 330.173 256C330.173 215.035 296.965 181.827 256 181.827Z" fill="#207BD6"/>
<path d="M183.12 242.249L326.367 279.451C328.823 272.078 330.173 264.199 330.173 256C330.173 253.437 330.043 250.905 329.789 248.409L195.249 213.468C189.31 221.935 185.099 231.696 183.12 242.249Z" fill="#EFEFEF"/>
<path d="M297.54 271.964L326.367 279.451C328.823 272.078 330.173 264.199 330.173 256C330.173 253.437 330.043 250.905 329.789 248.409L297.539 240.033C298.668 245.176 299.268 250.517 299.268 256C299.268 261.481 298.668 266.822 297.54 271.964Z" fill="#DCDCDC"/>
</svg>
