<svg width="535" height="422" viewBox="0 0 535 422" fill="none" xmlns="http://www.w3.org/2000/svg">
<g filter="url(#filter0_d)">
<g clip-path="url(#clip0)">
<path fill-rule="evenodd" clip-rule="evenodd" d="M40 30H687.594V56.2572H40V30ZM40 82.5143H687.594V108.772H40V82.5143ZM40 135.029H687.594V161.286H40V135.029ZM40 187.543H687.594V213.8H40V187.543ZM40 240.057H687.594V266.315H40V240.057ZM40 292.572H687.594V318.829H40V292.572ZM40 345.086H687.594V371.343H40V345.086Z" fill="#BD3D44"/>
<path fill-rule="evenodd" clip-rule="evenodd" d="M40 56.2583H687.594V82.5155H40V56.2583ZM40 108.773H687.594V135.03H40V108.773ZM40 161.287H687.594V187.544H40V161.287ZM40 213.801H687.594V240.058H40V213.801ZM40 266.316H687.594V292.573H40V266.316ZM40 318.83H687.594V345.087H40V318.83Z" fill="white"/>
<path fill-rule="evenodd" clip-rule="evenodd" d="M40 30H299.035V213.797H40V30Z" fill="#192F5D"/>
<path fill-rule="evenodd" clip-rule="evenodd" d="M61.5871 37.8667L63.9437 45.1308H71.5712L65.4002 49.6209L67.7574 56.8851L61.5864 52.3957L55.4168 56.8851L57.7733 49.6209L51.603 45.1308H59.2299L61.5871 37.8667ZM104.759 37.8667L107.117 45.1308H114.744L108.573 49.6209L110.93 56.8851L104.759 52.3957L98.5897 56.8851L100.946 49.6209L94.7759 45.1308H102.403L104.759 37.8667ZM147.934 37.8667L150.29 45.1308H157.918L151.747 49.6209L154.104 56.8851L147.934 52.3957L141.763 56.8851L144.12 49.6209L137.949 45.1308H145.577L147.934 37.8667ZM191.105 37.8667L193.462 45.1308H201.089L194.918 49.6209L197.275 56.8851L191.105 52.3957L184.934 56.8851L187.291 49.6209L181.12 45.1308H188.748L191.105 37.8667ZM234.279 37.8667L236.635 45.1308H244.263L238.092 49.6209L240.449 56.8851L234.278 52.3957L228.108 56.8851L230.465 49.6209L224.295 45.1308H231.921L234.279 37.8667ZM277.452 37.8667L279.809 45.1308H287.436L281.265 49.6209L283.623 56.8851L277.452 52.3957L271.281 56.8851L273.639 49.6209L267.468 45.1308H275.096L277.452 37.8667ZM83.1742 56.2471L85.5308 63.5112H93.1583L86.9873 68.0006L89.3452 75.2654L83.1742 70.776L77.0039 75.2654L79.3605 68.0006L73.1901 63.5112H80.8177L83.1742 56.2471ZM126.346 56.2471L128.702 63.5112H136.329L130.159 68.0006L132.515 75.2654L126.346 70.776L120.175 75.2654L122.532 68.0006L116.361 63.5112H123.989L126.346 56.2471ZM169.519 56.2471L171.876 63.5112H179.503L173.332 68.0006L175.69 75.2654L169.519 70.776L163.349 75.2654L165.706 68.0006L159.535 63.5112H167.162L169.519 56.2471ZM212.693 56.2471L215.049 63.5112H222.677L216.506 68.0006L218.863 75.2654L212.693 70.776L206.522 75.2654L208.88 68.0006L202.709 63.5112H210.337L212.693 56.2471ZM255.864 56.2471L258.221 63.5112H265.848L259.678 68.0006L262.034 75.2654L255.864 70.776L249.693 75.2654L252.051 68.0006L245.88 63.5112H253.507L255.864 56.2471ZM61.5871 74.6268L63.9437 81.8909H71.5712L65.4002 86.381L67.7574 93.6451L61.5864 89.1557L55.4168 93.6451L57.7733 86.381L51.603 81.8909H59.2299L61.5871 74.6268ZM104.759 74.6268L107.117 81.8909H114.744L108.573 86.381L110.93 93.6451L104.759 89.1557L98.5897 93.6451L100.946 86.381L94.7759 81.8909H102.403L104.759 74.6268ZM147.934 74.6268L150.29 81.8909H157.918L151.747 86.381L154.104 93.6451L147.934 89.1557L141.763 93.6451L144.12 86.381L137.949 81.8909H145.577L147.934 74.6268ZM191.105 74.6268L193.462 81.8909H201.089L194.918 86.381L197.275 93.6451L191.105 89.1557L184.934 93.6451L187.291 86.381L181.12 81.8909H188.748L191.105 74.6268ZM234.279 74.6268L236.635 81.8909H244.263L238.092 86.381L240.449 93.6451L234.278 89.1557L228.108 93.6451L230.465 86.381L224.295 81.8909H231.921L234.279 74.6268ZM277.452 74.6268L279.809 81.8909H287.436L281.265 86.381L283.623 93.6451L277.452 89.1557L271.281 93.6451L273.639 86.381L267.468 81.8909H275.096L277.452 74.6268ZM83.1742 93.0064L85.5308 100.271H93.1583L86.9873 104.761L89.3452 112.025L83.1742 107.536L77.0039 112.025L79.3605 104.761L73.1901 100.271H80.8177L83.1742 93.0064ZM126.346 93.0064L128.702 100.271H136.329L130.159 104.761L132.515 112.025L126.346 107.536L120.175 112.025L122.532 104.761L116.361 100.271H123.989L126.346 93.0064ZM169.519 93.0064L171.876 100.271H179.503L173.332 104.761L175.69 112.025L169.519 107.536L163.349 112.025L165.706 104.761L159.535 100.271H167.162L169.519 93.0064ZM212.693 93.0064L215.049 100.271H222.677L216.506 104.761L218.863 112.025L212.693 107.536L206.522 112.025L208.88 104.761L202.709 100.271H210.336L212.693 93.0064ZM255.864 93.0064L258.221 100.271H265.848L259.678 104.761L262.034 112.025L255.864 107.536L249.693 112.025L252.051 104.761L245.88 100.271H253.507L255.864 93.0064ZM61.5871 111.387L63.9437 118.651H71.5712L65.4002 123.141L67.7574 130.405L61.5864 125.916L55.4168 130.405L57.7733 123.141L51.603 118.651H59.2299L61.5871 111.387ZM104.759 111.387L107.117 118.651H114.744L108.573 123.141L110.93 130.405L104.759 125.916L98.5897 130.405L100.946 123.141L94.7759 118.651H102.403L104.759 111.387ZM147.934 111.387L150.29 118.651H157.918L151.747 123.141L154.104 130.405L147.934 125.916L141.763 130.405L144.12 123.141L137.949 118.651H145.577L147.934 111.387ZM191.105 111.387L193.462 118.651H201.089L194.918 123.141L197.275 130.405L191.105 125.916L184.934 130.405L187.291 123.141L181.12 118.651H188.748L191.105 111.387ZM234.279 111.387L236.635 118.651H244.263L238.092 123.141L240.449 130.405L234.278 125.916L228.108 130.405L230.465 123.141L224.295 118.651H231.921L234.279 111.387ZM277.452 111.387L279.809 118.651H287.436L281.265 123.141L283.623 130.405L277.452 125.916L271.281 130.405L273.639 123.141L267.468 118.651H275.096L277.452 111.387ZM83.1742 129.767L85.5308 137.031H93.1583L86.9873 141.521L89.3452 148.786L83.1742 144.296L77.0039 148.786L79.3605 141.521L73.1901 137.031H80.8177L83.1742 129.767ZM126.346 129.767L128.702 137.031H136.329L130.159 141.521L132.515 148.786L126.346 144.296L120.175 148.786L122.532 141.521L116.361 137.031H123.989L126.346 129.767ZM169.519 129.767L171.876 137.031H179.503L173.332 141.521L175.69 148.786L169.519 144.296L163.349 148.786L165.706 141.521L159.535 137.031H167.162L169.519 129.767ZM212.693 129.767L215.049 137.031H222.677L216.506 141.521L218.863 148.786L212.693 144.296L206.522 148.786L208.88 141.521L202.709 137.031H210.336L212.693 129.767ZM255.864 129.767L258.221 137.031H265.848L259.678 141.521L262.034 148.786L255.864 144.296L249.693 148.786L252.051 141.521L245.88 137.031H253.507L255.864 129.767Z" fill="white"/>
<path fill-rule="evenodd" clip-rule="evenodd" d="M61.5871 148.149L63.9437 155.413H71.5712L65.4002 159.903L67.7574 167.167L61.5864 162.678L55.4168 167.167L57.7733 159.903L51.603 155.413H59.2299L61.5871 148.149ZM104.759 148.149L107.117 155.413H114.744L108.573 159.903L110.93 167.167L104.759 162.678L98.5897 167.167L100.946 159.903L94.7759 155.413H102.403L104.759 148.149ZM147.934 148.149L150.29 155.413H157.918L151.747 159.903L154.104 167.167L147.934 162.678L141.763 167.167L144.12 159.903L137.949 155.413H145.577L147.934 148.149ZM191.105 148.149L193.462 155.413H201.089L194.918 159.903L197.275 167.167L191.105 162.678L184.934 167.167L187.291 159.903L181.12 155.413H188.748L191.105 148.149ZM234.279 148.149L236.635 155.413H244.263L238.092 159.903L240.449 167.167L234.278 162.678L228.108 167.167L230.465 159.903L224.295 155.413H231.921L234.279 148.149ZM277.452 148.149L279.809 155.413H287.436L281.265 159.903L283.623 167.167L277.452 162.678L271.281 167.167L273.639 159.903L267.468 155.413H275.096L277.452 148.149ZM83.1742 166.528L85.5308 173.793H93.1583L86.9873 178.283L89.3452 185.547L83.1742 181.058L77.0039 185.547L79.3605 178.283L73.1901 173.793H80.8177L83.1742 166.528ZM126.346 166.528L128.702 173.793H136.329L130.159 178.283L132.515 185.547L126.346 181.058L120.175 185.547L122.532 178.283L116.361 173.793H123.989L126.346 166.528ZM169.519 166.528L171.876 173.793H179.503L173.332 178.283L175.69 185.547L169.519 181.058L163.349 185.547L165.706 178.283L159.535 173.793H167.162L169.519 166.528ZM212.693 166.528L215.049 173.793H222.677L216.506 178.283L218.863 185.547L212.693 181.058L206.522 185.547L208.88 178.283L202.709 173.793H210.336L212.693 166.528ZM255.864 166.528L258.221 173.793H265.848L259.678 178.283L262.034 185.547L255.864 181.058L249.693 185.547L252.051 178.283L245.88 173.793H253.507L255.864 166.528Z" fill="white"/>
<path fill-rule="evenodd" clip-rule="evenodd" d="M61.5871 184.905L63.9437 192.169H71.5712L65.4002 196.659L67.7574 203.924L61.5864 199.434L55.4168 203.924L57.7733 196.659L51.603 192.169H59.2299L61.5871 184.905ZM104.759 184.905L107.117 192.169H114.744L108.573 196.659L110.93 203.924L104.759 199.434L98.5897 203.924L100.946 196.659L94.7759 192.169H102.403L104.759 184.905ZM147.934 184.905L150.29 192.169H157.918L151.747 196.659L154.104 203.924L147.934 199.434L141.763 203.924L144.12 196.659L137.949 192.169H145.577L147.934 184.905ZM191.105 184.905L193.462 192.169H201.089L194.918 196.659L197.275 203.924L191.105 199.434L184.934 203.924L187.291 196.659L181.12 192.169H188.748L191.105 184.905ZM234.279 184.905L236.635 192.169H244.263L238.092 196.659L240.449 203.924L234.278 199.434L228.108 203.924L230.465 196.659L224.295 192.169H231.921L234.279 184.905ZM277.452 184.905L279.809 192.169H287.436L281.265 196.659L283.623 203.924L277.452 199.434L271.281 203.924L273.639 196.659L267.468 192.169H275.096L277.452 184.905Z" fill="white"/>
</g>
</g>
<defs>
<filter id="filter0_d" x="0" y="0" width="534.447" height="421.34" filterUnits="userSpaceOnUse" color-interpolation-filters="sRGB">
<feFlood flood-opacity="0" result="BackgroundImageFix"/>
<feColorMatrix in="SourceAlpha" type="matrix" values="0 0 0 0 0 0 0 0 0 0 0 0 0 0 0 0 0 0 127 0"/>
<feOffset dy="10"/>
<feGaussianBlur stdDeviation="20"/>
<feColorMatrix type="matrix" values="0 0 0 0 0 0 0 0 0 0 0 0 0 0 0 0 0 0 0.15 0"/>
<feBlend mode="normal" in2="BackgroundImageFix" result="effect1_dropShadow"/>
<feBlend mode="normal" in="SourceGraphic" in2="effect1_dropShadow" result="shape"/>
</filter>
<clipPath id="clip0">
<rect x="40" y="30" width="454.447" height="341.34" rx="2" fill="white"/>
</clipPath>
</defs>
</svg>
